<svg id="ef7BvkPZ0H61" xmlns="http://www.w3.org/2000/svg" xmlns:xlink="http://www.w3.org/1999/xlink" viewBox="0 0 110 110" shape-rendering="geometricPrecision" text-rendering="geometricPrecision" width="110" height="110"><ellipse rx="45.220663" ry="44.551884" transform="matrix(1.105689 0 0 1.122287 56 54.980385)" fill="#f3f3f3" stroke="#040404" stroke-width="3"/><path d="M592.697,20.998h-15.63c-.414,0-.75.336-.75.75v31.51c0,.415.336.75.75.75h.59c.412-.005.745-.338.75-.75v-8.26h14.29c6.645,0,12.03-5.386,12.03-12.03s-5.386-12.03-12.03-12.03v.06Zm0,22h-14.29v-19.93h14.29c5.49,0,9.94,4.451,9.94,9.94c0,5.49-4.45,9.94-9.94,9.94v.05Z" transform="matrix(.808904 0 0 0.808904-449.153601 24.160941)" stroke="#000" stroke-width="3"/><path d="M740.737,23.078c3.723-.08,7.328,1.29,10.061,3.82l.398.39c.293.286.76.286,1.051,0l.43-.41c.145-.14.227-.33.23-.53c0-.202-.078-.396-.221-.54l-.449-.43c-5.398-4.999-13.451-5.824-19.75-2.022s-9.322,11.313-7.414,18.417c1.908,7.105,8.287,12.09,15.645,12.225h.299c4.164.004,8.174-1.572,11.221-4.41l.449-.43c.143-.145.221-.338.221-.54-.004-.2-.086-.391-.23-.53l-.43-.41c-.291-.286-.758-.286-1.051,0l-.408.39c-4.721,4.37-11.766,5.085-17.268,1.753s-8.131-9.906-6.445-16.114s7.279-10.548,13.713-10.639l-.052.01Z" transform="matrix(.808904 0 0 0.808904-513.224736 24.164048)" stroke="#000" stroke-width="3"/><path d="M706.507,49.438c3.7-3.84,8-8.31,10.239-10.51c4.689-4.7,5.27-11.75,1.301-15.73-1.027-1.022-2.268-1.808-3.63-2.3-.274-.399-.586-.771-.931-1.11-2.104-2.103-5.04-3.148-8-2.85-3.292.412-6.209,2.325-7.899,5.18l-.51.79l6.17,4.63.59-.91c1.354-2.328,3.702-3.906,6.37-4.28.963-.096,1.936-.014,2.87.24c1.868,3.29,1,8.17-2.351,11.5-4.29,4.29-15.1,15.55-15.21,15.66l-1.63,1.71h7.84l-3.24,3.37-1.63,1.7h26.61l-7-7.09h-9.959Zm3.52-29.09c-2.903.363-5.524,1.921-7.229,4.3l-2.94-2.2c1.371-1.93,3.483-3.202,5.83-3.51c1.866-.189,3.738.293,5.28,1.36-.311,0-.631.02-.941.05Zm-11.38,29.09c3.21-3.33,10.271-10.66,13.54-13.93c2.208-2.154,3.583-5.02,3.88-8.09.1-1.181.006-2.37-.279-3.52.295.222.572.465.828.73c3.141,3.13,2.551,9-1.299,12.88-2.479,2.48-7.66,7.83-11.609,11.93h-5.061Zm3,5.08l2.94-3.06h11.089l3,3.06h-17.029Z" transform="matrix(.808904 0 0 0.808904-516.574852 24.014753)" stroke="#000" stroke-width="2"/></svg>